<?xml version="1.0" encoding="iso-8859-1"?>
<!-- Generator: Adobe Illustrator 19.0.0, SVG Export Plug-In . SVG Version: 6.00 Build 0)  -->
<svg version="1.1" id="Layer_1" xmlns="http://www.w3.org/2000/svg" xmlns:xlink="http://www.w3.org/1999/xlink" x="0px" y="0px"
	 viewBox="0 0 512 512" style="enable-background:new 0 0 512 512;" xml:space="preserve">
<polygon style="fill:#FFAD61;" points="501.801,301.078 442.409,233.276 382.755,233.276 382.755,378.339 501.801,378.339 "/>
<rect x="172.112" y="181.209" style="fill:#FFE6B8;" width="210.644" height="197.13"/>
<g>
	<circle style="fill:#FFAD61;" cx="230.604" cy="378.339" r="28.382"/>
	<circle style="fill:#FFAD61;" cx="441.095" cy="378.339" r="28.382"/>
	<circle style="fill:#FFAD61;" cx="172.367" cy="177.691" r="72.414"/>
</g>
<g>
	<path style="fill:#4D3D36;" d="M403.893,388.539c4.485,16.339,19.459,28.382,37.203,28.382s32.718-12.043,37.204-28.382h23.502
		c5.632,0,10.199-4.566,10.199-10.199v-77.261c0-2.472-0.899-4.861-2.527-6.72l-59.391-67.802c-1.937-2.21-4.733-3.479-7.672-3.479
		h-49.455v-41.872c0-5.633-4.567-10.199-10.199-10.199H254.686c-3.419-42.435-39.019-75.927-82.32-75.927
		c-45.554,0-82.614,37.06-82.614,82.614c0,42.01,31.526,76.77,72.157,81.928v87.955h-59.045c-5.633,0-10.199,4.566-10.199,10.199
		s4.566,10.199,10.199,10.199h59.045v10.365c0,5.633,4.566,10.199,10.199,10.199h21.289c4.485,16.339,19.459,28.382,37.203,28.382
		s32.718-12.043,37.204-28.382L403.893,388.539L403.893,388.539z M110.151,177.693c0-34.306,27.909-62.215,62.215-62.215
		s62.215,27.909,62.215,62.215s-27.909,62.215-62.215,62.215S110.151,211.999,110.151,177.693z M372.555,368.14H267.803
		c-4.485-16.339-19.46-28.382-37.204-28.382c-17.743,0-32.717,12.043-37.203,28.382h-11.09V259.687
		c36.352-4.383,65.499-32.45,71.513-68.282h118.735V368.14H372.555z M230.6,396.523c-10.026,0-18.182-8.157-18.182-18.183
		c0-10.026,8.156-18.183,18.182-18.183c10.027,0,18.183,8.157,18.183,18.183C248.783,388.365,240.626,396.523,230.6,396.523z
		 M441.094,396.523c-10.026,0-18.182-8.157-18.182-18.183c0-10.026,8.156-18.183,18.182-18.183c10.026,0,18.183,8.157,18.183,18.183
		C459.277,388.365,451.121,396.523,441.094,396.523z M491.602,368.14h-13.304c-4.485-16.339-19.46-28.382-37.204-28.382
		s-32.717,12.043-37.203,28.382h-10.939V243.475h44.831l53.818,61.438V368.14z"/>
	<path style="fill:#4D3D36;" d="M69.261,347.576h-5.442c-5.633,0-10.199,4.566-10.199,10.199s4.566,10.199,10.199,10.199h5.442
		c5.633,0,10.199-4.566,10.199-10.199S74.894,347.576,69.261,347.576z"/>
	<path style="fill:#4D3D36;" d="M23.146,215.365h40.672c5.633,0,10.199-4.566,10.199-10.199c0-5.633-4.566-10.199-10.199-10.199
		H23.146c-5.633,0-10.199,4.566-10.199,10.199C12.947,210.799,17.513,215.365,23.146,215.365z"/>
	<path style="fill:#4D3D36;" d="M129.699,280.439c0-5.633-4.566-10.199-10.199-10.199H10.199C4.566,270.24,0,274.806,0,280.439
		s4.566,10.199,10.199,10.199H119.5C125.133,290.639,129.699,286.072,129.699,280.439z"/>
	<path style="fill:#4D3D36;" d="M189.873,205.399c2.61,0,5.221-0.996,7.212-2.987c3.983-3.983,3.983-10.441,0-14.425l-14.52-14.519
		v-43.521c0-5.633-4.566-10.199-10.199-10.199c-5.633,0-10.199,4.566-10.199,10.199v47.746c0,2.705,1.075,5.3,2.987,7.212
		l17.507,17.507C184.653,204.403,187.264,205.399,189.873,205.399z"/>
</g>
<g>
</g>
<g>
</g>
<g>
</g>
<g>
</g>
<g>
</g>
<g>
</g>
<g>
</g>
<g>
</g>
<g>
</g>
<g>
</g>
<g>
</g>
<g>
</g>
<g>
</g>
<g>
</g>
<g>
</g>
</svg>
